<svg xmlns="http://www.w3.org/2000/svg" xmlns:xlink="http://www.w3.org/1999/xlink" version="1.1" id="Layer_1" x="0px" y="0px" viewBox="0 0 508 508" style="enable-background:new 0 0 508 508;" xml:space="preserve" width="512" height="512" class=""><g transform="matrix(0.9997 -2.44856e-16 2.44856e-16 0.9997 0.0761922 0.0761922)"><circle style="fill:#FFFFFF" cx="254" cy="254" r="254" data-original="#324A5E" class="" data-old_color="#00FFFF"></circle><path style="fill:#0091FF" d="M420.4,214.4v108c0,21.6-17.6,39.2-39.2,39.2l0,0v50.8l-62-50.8H206c-21.6,0-39.2-17.6-39.2-39.2V300  l21.6-18H302c21.6,0,39.2-17.6,39.2-39.2v-68h40C402.8,175.2,420.4,192.8,420.4,214.4z" data-original="#2C9984" class="active-path" data-old_color="#0089FF"></path><path style="fill:#FF203C" d="M302,95.6H126.8c-21.6,0-39.2,17.6-39.2,39.2v108c0,21.6,17.6,39.2,39.2,39.2l0,0v50.8l62-50.8H302  c21.6,0,39.2-17.6,39.2-39.2v-108C341.2,113.2,323.6,95.6,302,95.6z" data-original="#FFFFFF" class="" data-old_color="#FD213C"></path><g>
	<circle style="fill:#FFFFFF" cx="141.6" cy="190" r="24.4" data-original="#84DBFF" class="" data-old_color="#ffffff"></circle>
	<circle style="fill:#FFFFFF" cx="214.4" cy="190" r="24.4" data-original="#84DBFF" class="" data-old_color="#ffffff"></circle>
	<circle style="fill:#FFFFFF" cx="286.8" cy="190" r="24.4" data-original="#84DBFF" class="" data-old_color="#ffffff"></circle>
</g></g> </svg>